<svg width="44" height="39" viewBox="0 0 44 39" fill="none" xmlns="http://www.w3.org/2000/svg">
<path d="M0.5 29.8813V2.5C0.5 1.39543 1.39543 0.5 2.5 0.5L41.5 0.500003C42.6046 0.500004 43.5 1.39543 43.5 2.5V36.0107C43.5 36.912 42.4014 37.3533 41.7779 36.7025L37.7495 32.4977C37.3723 32.1039 36.8506 31.8813 36.3053 31.8813L2.5 31.8813C1.39543 31.8813 0.5 30.9858 0.5 29.8813Z" fill="#F7F7F7" stroke="#161616"/>
<path d="M12.5 16.5C12.5 14.8431 13.8431 13.5 15.5 13.5C17.1569 13.5 18.5 14.8431 18.5 16.5C18.5 18.1569 17.1569 19.5 15.5 19.5C13.8431 19.5 12.5 18.1569 12.5 16.5Z" fill="#161616"/>
<path d="M25.5 16.5C25.5 14.8431 26.8431 13.5 28.5 13.5C30.1569 13.5 31.5 14.8431 31.5 16.5C31.5 18.1569 30.1569 19.5 28.5 19.5C26.8431 19.5 25.5 18.1569 25.5 16.5Z" fill="#161616"/>
</svg>
