<svg width="34" height="29" viewBox="0 0 34 29" fill="none" xmlns="http://www.w3.org/2000/svg">
<path d="M8.5 3C8.5 1.61929 9.61929 0.5 11 0.5H30.1429C31.5236 0.5 32.6429 1.61929 32.6429 3V21.4058C32.6429 22.6039 31.3076 23.3185 30.3108 22.6539L27.8903 21.0402C27.3153 20.6569 26.6398 20.4524 25.9488 20.4524H11C9.61929 20.4524 8.5 19.3331 8.5 17.9524V3Z" fill="#F7F7F7" stroke="#161616"/>
<path d="M28.2858 11.0002C28.2858 12.302 27.2305 13.3574 25.9287 13.3574C24.6269 13.3574 23.5715 12.302 23.5715 11.0002C23.5715 9.6984 24.6269 8.64307 25.9287 8.64307C27.2305 8.64307 28.2858 9.6984 28.2858 11.0002Z" fill="#161616"/>
<path d="M19.9285 10.8572C19.9285 9.47647 18.8092 8.35718 17.4285 8.35718H2.99989C1.61918 8.35718 0.499895 9.47647 0.499895 10.8572V24.5487C0.499895 25.7468 1.83511 26.4613 2.83195 25.7968L4.07391 24.9688C4.64885 24.5855 5.32438 24.381 6.01536 24.381H17.4285C18.8092 24.381 19.9285 23.2617 19.9285 21.881V10.8572Z" fill="#F7F7F7" stroke="#161616"/>
<circle cx="5.49997" cy="16.5002" r="2.35714" fill="#161616"/>
<circle cx="14.9287" cy="16.5002" r="2.35714" fill="#161616"/>
</svg>
