<svg width="40" height="40" viewBox="0 0 40 40" fill="none" xmlns="http://www.w3.org/2000/svg">
<circle cx="20" cy="20" r="8.72857" fill="#F7F7F7" stroke="#161616"/>
<path fill-rule="evenodd" clip-rule="evenodd" d="M17.7111 1.13668C18.4623 1.04637 19.2262 1 20 1C20.7738 1 21.5377 1.04637 22.2889 1.13668C23.4796 1.27982 24.3288 2.3611 24.1857 3.55177C24.0425 4.74244 22.9613 5.59164 21.7706 5.44849C21.191 5.37881 20.6002 5.34286 20 5.34286C19.3998 5.34286 18.809 5.37881 18.2294 5.44849C17.0387 5.59163 15.9575 4.74244 15.8143 3.55177C15.6712 2.36109 16.5204 1.27982 17.7111 1.13668ZM11.3296 5.41186C12.0698 6.35539 11.905 7.72035 10.9615 8.46058C10.0309 9.19065 9.19065 10.0309 8.46058 10.9615C7.72035 11.905 6.35539 12.0698 5.41186 11.3296C4.46833 10.5893 4.30353 9.22438 5.04376 8.28085C5.98882 7.07623 7.07624 5.98882 8.28085 5.04376C9.22438 4.30352 10.5893 4.46833 11.3296 5.41186ZM28.6704 5.41186C29.4107 4.46833 30.7756 4.30353 31.7192 5.04376C32.9238 5.98882 34.0112 7.07624 34.9562 8.28085C35.6965 9.22438 35.5317 10.5893 34.5881 11.3296C33.6446 12.0698 32.2797 11.905 31.5394 10.9615C30.8093 10.0309 29.9691 9.19065 29.0385 8.46058C28.095 7.72035 27.9302 6.35539 28.6704 5.41186ZM3.55177 15.8143C4.74244 15.9575 5.59164 17.0387 5.44849 18.2294C5.37881 18.809 5.34286 19.3998 5.34286 20C5.34286 20.6002 5.37881 21.191 5.44849 21.7706C5.59163 22.9613 4.74244 24.0425 3.55177 24.1857C2.36109 24.3288 1.27982 23.4796 1.13668 22.2889C1.04637 21.5377 1 20.7738 1 20C1 19.2262 1.04637 18.4623 1.13668 17.7111C1.27982 16.5204 2.3611 15.6712 3.55177 15.8143ZM36.4482 15.8143C37.6389 15.6712 38.7202 16.5204 38.8633 17.7111C38.9536 18.4623 39 19.2262 39 20C39 20.7738 38.9536 21.5377 38.8633 22.2889C38.7202 23.4796 37.6389 24.3288 36.4482 24.1857C35.2576 24.0425 34.4084 22.9613 34.5515 21.7706C34.6212 21.191 34.6571 20.6002 34.6571 20C34.6571 19.3998 34.6212 18.809 34.5515 18.2294C34.4084 17.0387 35.2576 15.9575 36.4482 15.8143ZM5.41186 28.6704C6.35539 27.9302 7.72035 28.095 8.46058 29.0385C9.19065 29.9691 10.0309 30.8093 10.9615 31.5394C11.905 32.2797 12.0698 33.6446 11.3296 34.5881C10.5893 35.5317 9.22438 35.6965 8.28085 34.9562C7.07623 34.0112 5.98882 32.9238 5.04376 31.7192C4.30352 30.7756 4.46833 29.4107 5.41186 28.6704ZM34.5881 28.6704C35.5317 29.4107 35.6965 30.7756 34.9562 31.7192C34.0112 32.9238 32.9238 34.0112 31.7192 34.9562C30.7756 35.6965 29.4107 35.5317 28.6704 34.5881C27.9302 33.6446 28.095 32.2797 29.0385 31.5394C29.9691 30.8093 30.8093 29.9691 31.5394 29.0385C32.2797 28.095 33.6446 27.9302 34.5881 28.6704ZM15.8143 36.4482C15.9575 35.2576 17.0387 34.4084 18.2294 34.5515C18.809 34.6212 19.3998 34.6571 20 34.6571C20.6002 34.6571 21.191 34.6212 21.7706 34.5515C22.9613 34.4084 24.0425 35.2576 24.1857 36.4482C24.3288 37.6389 23.4796 38.7202 22.2889 38.8633C21.5377 38.9536 20.7738 39 20 39C19.2262 39 18.4623 38.9536 17.7111 38.8633C16.5204 38.7202 15.6712 37.6389 15.8143 36.4482Z" fill="#F7F7F7" stroke="#161616" stroke-linecap="round"/>
</svg>
