<svg width="47" height="35" viewBox="0 0 47 35" fill="none" xmlns="http://www.w3.org/2000/svg">
<circle cx="14" cy="9.5" r="9" fill="white" stroke="#161616"/>
<path d="M23.1924 25.3076C25.5123 27.6275 26.8648 30.7339 26.9904 34L1.00961 34C1.13521 30.7339 2.48774 27.6275 4.80761 25.3076C7.24559 22.8696 10.5522 21.5 14 21.5C17.4478 21.5 20.7544 22.8696 23.1924 25.3076Z" fill="white" stroke="#161616"/>
<path d="M34.3375 18.9125C34.8898 18.9125 35.3375 19.3602 35.3375 19.9125V25.75C35.3375 26.3023 35.7852 26.75 36.3375 26.75H37.6625C38.2148 26.75 38.6625 26.3023 38.6625 25.75V19.9125C38.6625 19.3602 39.1102 18.9125 39.6625 18.9125H45.5C46.0523 18.9125 46.5 18.4648 46.5 17.9125V16.5875C46.5 16.0352 46.0523 15.5875 45.5 15.5875H39.6625C39.1102 15.5875 38.6625 15.1398 38.6625 14.5875V8.75C38.6625 8.19772 38.2148 7.75 37.6625 7.75H36.3375C35.7852 7.75 35.3375 8.19772 35.3375 8.75V14.5875C35.3375 15.1398 34.8898 15.5875 34.3375 15.5875H28.5C27.9477 15.5875 27.5 16.0352 27.5 16.5875V17.9125C27.5 18.4648 27.9477 18.9125 28.5 18.9125H34.3375Z" fill="#F7F7F7" stroke="#161616"/>
</svg>
