<svg width="46" height="42" viewBox="0 0 46 42" fill="none" xmlns="http://www.w3.org/2000/svg">
<path d="M1.842 16.6868L21.7838 1.41224C22.5014 0.862585 23.4985 0.862585 24.2161 1.41224L44.158 16.6868C44.9168 17.2681 44.5058 18.4807 43.5499 18.4807H41.5C40.3954 18.4807 39.5 19.3762 39.5 20.4807V39.4807C39.5 40.5853 38.6046 41.4807 37.5 41.4807H30.875C29.7704 41.4807 28.875 40.5853 28.875 39.4807V31.7664C28.875 30.6619 27.9796 29.7664 26.875 29.7664H19.125C18.0204 29.7664 17.125 30.6619 17.125 31.7664V39.4807C17.125 40.5853 16.2296 41.4807 15.125 41.4807H8.49999C7.39542 41.4807 6.49999 40.5853 6.49999 39.4807V20.4807C6.49999 19.3762 5.60456 18.4807 4.49999 18.4807H2.45007C1.49418 18.4807 1.08314 17.2681 1.842 16.6868Z" fill="#F7F7F7" stroke="#161616"/>
</svg>
