<svg width="36" height="37" viewBox="0 0 36 37" fill="none" xmlns="http://www.w3.org/2000/svg">
<path d="M0.5 28.569C0.5 27.7526 0.824293 26.9697 1.40154 26.3925L24.0787 3.71528L25.8925 1.90153C27.0945 0.699488 29.0434 0.699488 30.2455 1.90153L34.5985 6.25453C35.8005 7.45658 35.8005 9.40548 34.5985 10.6075L32.7847 12.4213L10.1075 35.0985C9.53028 35.6757 8.74737 36 7.93103 36H2.55202C1.41872 36 0.5 35.0813 0.5 33.948V28.569Z" fill="#F7F7F7"/>
<path d="M24.0787 3.71528L1.40154 26.3925C0.824292 26.9697 0.5 27.7526 0.5 28.569V33.948C0.5 35.0813 1.41872 36 2.55202 36H7.93103C8.74737 36 9.53028 35.6757 10.1075 35.0985L32.7847 12.4213M24.0787 3.71528L32.7847 12.4213M24.0787 3.71528L25.8925 1.90153C27.0945 0.699488 29.0434 0.699488 30.2455 1.90153L34.5985 6.25453C35.8005 7.45658 35.8005 9.40548 34.5985 10.6075L32.7847 12.4213" stroke="#161616"/>
</svg>
