<svg width="40" height="39" viewBox="0 0 40 39" fill="none" xmlns="http://www.w3.org/2000/svg">
<path d="M15.675 22.825C16.2273 22.825 16.675 23.2727 16.675 23.825V37.5C16.675 38.0523 17.1227 38.5 17.675 38.5H22.325C22.8773 38.5 23.325 38.0523 23.325 37.5V23.825C23.325 23.2727 23.7727 22.825 24.325 22.825H38C38.5523 22.825 39 22.3773 39 21.825V17.175C39 16.6227 38.5523 16.175 38 16.175H24.325C23.7727 16.175 23.325 15.7273 23.325 15.175V1.5C23.325 0.947715 22.8773 0.5 22.325 0.5H17.675C17.1227 0.5 16.675 0.947716 16.675 1.5V15.175C16.675 15.7273 16.2273 16.175 15.675 16.175H2C1.44772 16.175 1 16.6227 1 17.175V21.825C1 22.3773 1.44772 22.825 2 22.825H15.675Z" fill="#F7F7F7" stroke="#161616"/>
</svg>
