<svg width="36" height="37" viewBox="0 0 36 37" fill="none" xmlns="http://www.w3.org/2000/svg">
<path d="M0.5 33.4807V12.2688C0.5 11.4732 0.816071 10.7101 1.37868 10.1475L9.16677 2.35939C9.72938 1.79678 10.4924 1.48071 11.2881 1.48071H16.4091H29.1364H32.5C34.1569 1.48071 35.5 2.82386 35.5 4.48071V33.4807C35.5 35.1376 34.1569 36.4807 32.5 36.4807H3.5C1.84315 36.4807 0.5 35.1376 0.5 33.4807Z" fill="#F7F7F7"/>
<path d="M16.4091 1.48071H11.2881C10.4924 1.48071 9.72938 1.79678 9.16677 2.35939L1.37868 10.1475C0.816071 10.7101 0.5 11.4732 0.5 12.2688V33.4807C0.5 35.1376 1.84315 36.4807 3.5 36.4807H32.5C34.1569 36.4807 35.5 35.1376 35.5 33.4807V4.48071C35.5 2.82386 34.1569 1.48071 32.5 1.48071H29.1364M16.4091 1.48071V7.43526C16.4091 8.53983 17.3045 9.43526 18.4091 9.43526H27.1364C28.2409 9.43526 29.1364 8.53983 29.1364 7.43526V1.48071M16.4091 1.48071H29.1364" stroke="#161616"/>
<circle cx="22.5161" cy="23.4968" r="5.70968" fill="#F7F7F7" stroke="#161616"/>
</svg>
