<svg width="30" height="30" viewBox="0 0 30 30" fill="none" xmlns="http://www.w3.org/2000/svg">
<path d="M13.4903 0.598312C13.0877 0.598312 12.7243 0.839765 12.5684 1.21095L11.2629 4.31802C11.1472 4.5934 10.9114 4.79712 10.6409 4.92378C10.604 4.94106 10.5673 4.95884 10.5309 4.97704C10.2563 5.11408 9.93739 5.13738 9.65447 5.01851L6.56737 3.72141C6.19278 3.56402 5.7602 3.64892 5.4729 3.93623L3.90933 5.4998C3.62202 5.7871 3.53712 6.21968 3.69451 6.59427L5.0019 9.70588C5.11488 9.97477 5.10279 10.2786 4.97645 10.5415C4.94738 10.602 4.91906 10.662 4.89123 10.7227C4.77961 10.966 4.58708 11.1654 4.3403 11.2691L1.18405 12.5953C0.812864 12.7512 0.571411 13.1146 0.571411 13.5172V15.6794C0.571411 16.082 0.812864 16.4454 1.18405 16.6014L4.3403 17.9275C4.58708 18.0312 4.77961 18.2306 4.89123 18.4739C4.91906 18.5346 4.94738 18.5947 4.97645 18.6551C5.10279 18.918 5.11488 19.2219 5.0019 19.4907L3.69451 22.6024C3.53712 22.9769 3.62202 23.4095 3.90933 23.6968L5.4729 25.2604C5.7602 25.5477 6.19278 25.6326 6.56737 25.4752L9.70408 24.1573C9.95838 24.0504 10.2453 24.054 10.4931 24.1752C10.5605 24.2082 10.6286 24.2414 10.6976 24.2743C10.9393 24.3894 11.1385 24.5826 11.2422 24.8294L12.5684 27.9857C12.7243 28.3569 13.0877 28.5983 13.4903 28.5983H15.6525C16.0551 28.5983 16.4185 28.3569 16.5745 27.9857L17.9091 24.8092C18.0078 24.5744 18.1927 24.3873 18.426 24.2853C18.4855 24.2593 18.5453 24.2328 18.6049 24.2058C18.8844 24.079 19.2054 24.0592 19.4884 24.1781L22.5755 25.4752C22.95 25.6326 23.3826 25.5477 23.6699 25.2604L25.2335 23.6968C25.5208 23.4095 25.6057 22.9769 25.4483 22.6024L24.1304 19.4656C24.0235 19.2113 24.0264 18.9241 24.1442 18.6748C24.1797 18.5998 24.2155 18.5244 24.2508 18.4495C24.3595 18.2193 24.5475 18.0347 24.7823 17.936L27.9588 16.6014C28.33 16.4454 28.5714 16.082 28.5714 15.6794V13.5172C28.5714 13.1146 28.33 12.7512 27.9588 12.5953L24.8348 11.2827C24.5691 11.171 24.368 10.9485 24.2479 10.6866C24.2286 10.6445 24.2086 10.6023 24.1882 10.5601C24.0541 10.2841 24.0323 9.96429 24.1512 9.68137L25.4483 6.59427C25.6057 6.21968 25.5208 5.7871 25.2335 5.4998L23.6699 3.93623C23.3826 3.64892 22.95 3.56402 22.5755 3.72141L19.4387 5.03935C19.1844 5.1462 18.8972 5.14336 18.6479 5.02549C18.5729 4.99004 18.4975 4.95425 18.4226 4.91892C18.1924 4.81027 18.0078 4.62222 17.9091 4.38747L16.5745 1.21095C16.4185 0.839766 16.0551 0.598312 15.6525 0.598312L13.4903 0.598312ZM14.5714 9.32649C17.4692 9.32649 19.8083 11.6656 19.8083 14.5634C19.8083 17.4612 17.4692 19.8003 14.5714 19.8003C11.6737 19.8003 9.3345 17.4612 9.3345 14.5634C9.3345 11.6656 11.6737 9.32649 14.5714 9.32649Z" fill="#F7F7F7" stroke="#161616"/>
</svg>
