<svg width="199" height="228" viewBox="0 0 199 228" fill="none" xmlns="http://www.w3.org/2000/svg">
<path d="M96.0654 2.5145C96.8061 -0.838163 101.577 -0.838167 102.318 2.51449L118.502 75.7627C118.908 77.601 120.8 78.6952 122.593 78.1284L194.007 55.5449C197.276 54.5113 199.662 58.6506 197.134 60.9696L141.903 111.634C140.517 112.906 140.517 115.094 141.903 116.366L197.134 167.03C199.662 169.349 197.276 173.489 194.007 172.455L122.593 149.872C120.8 149.305 118.908 150.399 118.502 152.237L102.318 225.486C101.577 228.838 96.8061 228.838 96.0654 225.485L79.8813 152.237C79.4751 150.399 77.5833 149.305 75.791 149.872L4.37615 172.455C1.10741 173.489 -1.27821 169.349 1.24977 167.03L56.4805 116.366C57.8666 115.094 57.8666 112.906 56.4805 111.634L1.24977 60.9696C-1.27821 58.6506 1.10741 54.5113 4.37615 55.5449L75.791 78.1284C77.5833 78.6952 79.4751 77.601 79.8813 75.7627L96.0654 2.5145Z" fill="white"/>
</svg>
