<svg width="49" height="35" viewBox="0 0 49 35" fill="none" xmlns="http://www.w3.org/2000/svg">
<circle cx="14.1321" cy="9.5" r="9" fill="white" stroke="#161616"/>
<path d="M23.3245 25.3076C25.6443 27.6275 26.9969 30.7339 27.1225 34L1.14169 34C1.26729 30.7339 2.61982 27.6275 4.93969 25.3076C7.37767 22.8696 10.6843 21.5 14.1321 21.5C17.5799 21.5 20.8865 22.8696 23.3245 25.3076Z" fill="white" stroke="#161616"/>
<path d="M36.9394 26.2037L47.6609 15.4822C48.0514 15.0917 48.0514 14.4585 47.6609 14.068L46.724 13.1311C46.3334 12.7406 45.7003 12.7406 45.3097 13.1311L36.2323 22.2086C35.8417 22.5991 35.2086 22.5991 34.8181 22.2086L30.6903 18.0808C30.2998 17.6903 29.6666 17.6903 29.2761 18.0808L28.3392 19.0177C27.9487 19.4083 27.9487 20.0414 28.3392 20.432L34.1109 26.2037C34.892 26.9848 36.1583 26.9848 36.9394 26.2037Z" fill="#F7F7F7" stroke="#161616"/>
</svg>
