<svg width="20" height="20" viewBox="0 0 20 20" fill="none" xmlns="http://www.w3.org/2000/svg">
<path d="M8.75121 1.17517C9.31508 0.941609 9.94864 0.941609 10.5125 1.17517L14.9889 3.02936C15.5528 3.26293 16.0008 3.71092 16.2344 4.27479L18.0885 8.75121C18.3221 9.31508 18.3221 9.94864 18.0885 10.5125L16.2344 14.9889C16.0008 15.5528 15.5528 16.0008 14.9889 16.2344L10.5125 18.0885C9.94864 18.3221 9.31508 18.3221 8.75121 18.0885L4.27479 16.2344C3.71092 16.0008 3.26293 15.5528 3.02936 14.9889L1.17517 10.5125C0.941609 9.94864 0.941609 9.31508 1.17517 8.75121L3.02936 4.27479C3.26293 3.71092 3.71092 3.26293 4.27479 3.02936L8.75121 1.17517Z" fill="#FFE459" stroke="#161616" stroke-width="1.53417"/>
<path fill-rule="evenodd" clip-rule="evenodd" d="M13.6261 7.17174C13.9257 7.47131 13.9257 7.957 13.6261 8.25656L9.56603 12.3167C8.9669 12.9158 7.99552 12.9158 7.39639 12.3167L5.63755 10.5578C5.33799 10.2582 5.33799 9.77256 5.63755 9.47299C5.93712 9.17343 6.42281 9.17343 6.72237 9.47299L7.9388 10.6894C8.23837 10.989 8.72406 10.989 9.02362 10.6894L12.5413 7.17174C12.8409 6.87218 13.3266 6.87218 13.6261 7.17174Z" fill="#161616"/>
</svg>
