<svg width="32" height="35" viewBox="0 0 32 35" fill="none" xmlns="http://www.w3.org/2000/svg">
<g filter="url(#filter0_d_100_1979)">
<rect width="32" height="32" rx="7.52941" fill="#925FFF"/>
<rect x="0.470588" y="0.470588" width="31.0588" height="31.0588" rx="7.05882" stroke="#161616" stroke-width="0.941176"/>
</g>
<path d="M15.9172 22.0913C13.9294 22.0913 12.3482 21.5492 11.1737 20.4649C9.99907 19.3656 9.41177 17.7995 9.41177 15.7666V11.9718C9.41177 9.93882 9.99907 8.38023 11.1737 7.296C12.3482 6.1967 13.9294 5.64706 15.9172 5.64706C17.905 5.64706 19.4861 6.1967 20.6607 7.296C21.8353 8.38023 22.4226 9.93882 22.4226 11.9718V15.7666C22.4226 17.7995 21.8353 19.3656 20.6607 20.4649C19.4861 21.5492 17.905 22.0913 15.9172 22.0913ZM15.9172 19.4259C17.0315 19.4259 17.8974 19.1021 18.5148 18.4546C19.1322 17.8071 19.441 16.9412 19.441 15.8569V11.8814C19.441 10.7972 19.1322 9.93129 18.5148 9.28376C17.8974 8.63623 17.0315 8.31247 15.9172 8.31247C14.8179 8.31247 13.952 8.63623 13.3195 9.28376C12.7021 9.93129 12.3934 10.7972 12.3934 11.8814V15.8569C12.3934 16.9412 12.7021 17.8071 13.3195 18.4546C13.952 19.1021 14.8179 19.4259 15.9172 19.4259ZM16.9562 25.8409C16.2184 25.8409 15.616 25.6075 15.1492 25.1407C14.6974 24.6889 14.4715 24.0791 14.4715 23.3111V21.7751H17.3628V22.8593C17.3628 23.3111 17.5737 23.5369 17.9953 23.5369H22.4226V25.8409H16.9562Z" fill="#F7F7F7"/>
<defs>
<filter id="filter0_d_100_1979" x="0" y="0" width="32" height="34.8235" filterUnits="userSpaceOnUse" color-interpolation-filters="sRGB">
<feFlood flood-opacity="0" result="BackgroundImageFix"/>
<feColorMatrix in="SourceAlpha" type="matrix" values="0 0 0 0 0 0 0 0 0 0 0 0 0 0 0 0 0 0 127 0" result="hardAlpha"/>
<feOffset dy="2.82353"/>
<feComposite in2="hardAlpha" operator="out"/>
<feColorMatrix type="matrix" values="0 0 0 0 0.0862745 0 0 0 0 0.0862745 0 0 0 0 0.0862745 0 0 0 1 0"/>
<feBlend mode="normal" in2="BackgroundImageFix" result="effect1_dropShadow_100_1979"/>
<feBlend mode="normal" in="SourceGraphic" in2="effect1_dropShadow_100_1979" result="shape"/>
</filter>
</defs>
</svg>
