<svg width="48" height="38" viewBox="0 0 48 38" fill="none" xmlns="http://www.w3.org/2000/svg">
<path d="M1 34V11.5C1 9.84315 2.34315 8.5 4 8.5H7.88781C8.67588 8.5 9.4323 8.18991 9.9936 7.63675L16.3593 1.36325C16.9206 0.810089 17.6771 0.5 18.4651 0.5H29.5349C30.3229 0.5 31.0794 0.81009 31.6407 1.36325L38.0064 7.63675C38.5677 8.18991 39.3241 8.5 40.1122 8.5H44C45.6569 8.5 47 9.84315 47 11.5V34C47 35.6569 45.6569 37 44 37H4C2.34315 37 1 35.6569 1 34Z" fill="#F7F7F7" stroke="#161616"/>
<path d="M32.5 21.5C32.5 26.1944 28.6944 30 24 30C19.3056 30 15.5 26.1944 15.5 21.5C15.5 16.8056 19.3056 13 24 13C28.6944 13 32.5 16.8056 32.5 21.5Z" fill="#F7F7F7" stroke="#161616"/>
</svg>
