<svg width="34" height="29" viewBox="0 0 34 29" fill="none" xmlns="http://www.w3.org/2000/svg">
<path d="M8.5 3C8.5 1.61929 9.61929 0.5 11 0.5H30.1429C31.5236 0.5 32.6429 1.61929 32.6429 3V21.4058C32.6429 22.6039 31.3076 23.3185 30.3108 22.6539L27.8903 21.0402C27.3153 20.6569 26.6398 20.4524 25.9488 20.4524H11C9.61929 20.4524 8.5 19.3331 8.5 17.9524V3Z" fill="#F7F7F7" stroke="#161616"/>
<path d="M28.2857 11.0002C28.2857 12.3021 27.2304 13.3574 25.9286 13.3574C24.6267 13.3574 23.5714 12.3021 23.5714 11.0002C23.5714 9.69843 24.6267 8.6431 25.9286 8.6431C27.2304 8.6431 28.2857 9.69843 28.2857 11.0002Z" fill="#161616"/>
<path d="M19.9286 10.8573C19.9286 9.47659 18.8093 8.3573 17.4286 8.3573H3.00002C1.6193 8.3573 0.500017 9.47659 0.500017 10.8573V24.5488C0.500017 25.7469 1.83523 26.4615 2.83207 25.7969L4.07404 24.9689C4.64897 24.5856 5.3245 24.3811 6.01549 24.3811H17.4286C18.8093 24.3811 19.9286 23.2618 19.9286 21.8811V10.8573Z" fill="#F7F7F7" stroke="#161616"/>
<circle cx="5.49997" cy="16.5003" r="2.35714" fill="#161616"/>
<circle cx="14.9286" cy="16.5003" r="2.35714" fill="#161616"/>
</svg>
