<svg width="32" height="39" viewBox="0 0 32 39" fill="none" xmlns="http://www.w3.org/2000/svg">
<path d="M1.25 36V3.48071C1.25 2.37614 2.14543 1.48071 3.25 1.48071H22.875L30.75 9.4554V36C30.75 37.1046 29.8546 38 28.75 38H3.25C2.14543 38 1.25 37.1046 1.25 36Z" fill="#F7F7F7"/>
<path d="M30.75 9.4554V36C30.75 37.1046 29.8546 38 28.75 38H3.25C2.14543 38 1.25 37.1046 1.25 36V3.48071C1.25 2.37614 2.14543 1.48071 3.25 1.48071L22.875 1.48071M30.75 9.4554L22.875 1.48071M30.75 9.4554H24.875C23.7704 9.4554 22.875 8.55997 22.875 7.4554V1.48071" stroke="#161616"/>
</svg>
