<svg width="231" height="231" viewBox="0 0 231 231" fill="none" xmlns="http://www.w3.org/2000/svg">
<path d="M229.028 112.991C230.835 114.176 230.835 116.824 229.028 118.009L162.405 161.685C162.061 161.911 161.767 162.205 161.541 162.55L117.864 229.173C116.68 230.98 114.031 230.98 112.846 229.173L69.1699 162.55C68.9442 162.205 68.6501 161.911 68.3058 161.685L1.68243 118.009C-0.124528 116.824 -0.124531 114.176 1.68243 112.991L68.3058 69.3145C68.6501 69.0888 68.9442 68.7947 69.1699 68.4504L112.846 1.82705C114.031 0.0200926 116.68 0.0200942 117.864 1.82705L161.541 68.4504C161.767 68.7947 162.061 69.0888 162.405 69.3145L229.028 112.991Z" fill="white"/>
</svg>
