<svg width="230" height="235" viewBox="0 0 230 235" fill="none" xmlns="http://www.w3.org/2000/svg">
<path d="M114.773 0L118.261 89.2038C118.38 92.2655 122.472 93.1994 123.908 90.4929L165.754 11.6362L130.193 93.5192C128.972 96.3296 132.253 98.9463 134.722 97.131L206.638 44.24L139.07 102.584C136.751 104.587 138.572 108.368 141.584 107.803L229.327 91.3538L143.136 114.604C140.178 115.402 140.178 119.598 143.136 120.396L229.327 143.646L141.584 127.197C138.572 126.632 136.751 130.413 139.07 132.416L206.638 190.76L134.722 137.869C132.253 136.054 128.972 138.67 130.193 141.481L165.754 223.364L123.908 144.507C122.472 141.801 118.38 142.735 118.261 145.796L114.773 235L111.286 145.796C111.166 142.735 107.074 141.801 105.638 144.507L63.7918 223.364L99.3538 141.481C100.574 138.67 97.293 136.054 94.8247 137.869L22.908 190.76L90.4759 132.416C92.795 130.413 90.974 126.632 87.9624 127.197L0.219116 143.646L86.4104 120.396C89.3686 119.598 89.3686 115.402 86.4104 114.604L0.219116 91.3538L87.9624 107.803C90.974 108.368 92.795 104.587 90.4759 102.584L22.908 44.24L94.8247 97.131C97.293 98.9463 100.574 96.3296 99.3538 93.5192L63.7918 11.6362L105.638 90.4929C107.074 93.1994 111.166 92.2655 111.286 89.2038L114.773 0Z" fill="white"/>
</svg>
