<svg width="226" height="221" viewBox="0 0 226 221" fill="none" xmlns="http://www.w3.org/2000/svg">
<path d="M110.19 1.86404C111.389 0.22973 113.83 0.229728 115.029 1.86404L145.823 43.8493C146.413 44.6543 147.365 45.1129 148.363 45.0726L200.388 42.9708C202.413 42.889 203.935 44.7973 203.404 46.7535L189.779 97.0065C189.517 97.97 189.753 99.0004 190.406 99.7552L224.486 139.12C225.813 140.652 225.27 143.032 223.41 143.837L175.625 164.516C174.709 164.912 174.05 165.739 173.867 166.72L164.339 217.908C163.969 219.901 161.769 220.96 159.98 220.008L114.019 195.541C113.138 195.072 112.081 195.072 111.2 195.541L65.2388 220.008C63.4497 220.96 61.2506 219.901 60.8798 217.908L51.3521 166.72C51.1694 165.739 50.5105 164.912 49.5943 164.516L1.80938 143.837C-0.0506819 143.032 -0.593816 140.652 0.732786 139.12L34.8131 99.7552C35.4665 99.0004 35.7017 97.97 35.4404 97.0065L21.8148 46.7535C21.2844 44.7973 22.8062 42.889 24.8313 42.9708L76.8564 45.0726C77.8539 45.1129 78.8061 44.6543 79.3966 43.8493L110.19 1.86404Z" fill="white"/>
</svg>
