<svg width="225" height="224" viewBox="0 0 225 224" fill="none" xmlns="http://www.w3.org/2000/svg">
<path d="M221.573 108.838C225.065 109.5 225.065 114.5 221.573 115.162L156.611 127.485C154.333 127.917 153.245 130.543 154.55 132.459L191.772 187.109C193.772 190.046 190.237 193.581 187.3 191.58L132.651 154.359C130.735 153.054 128.109 154.141 127.677 156.419L115.354 221.382C114.691 224.873 109.692 224.873 109.03 221.382L96.7064 156.419C96.2743 154.141 93.6488 153.054 91.7328 154.359L37.0831 191.58C34.1461 193.581 30.6112 190.046 32.6115 187.109L69.8331 132.459C71.1381 130.543 70.0506 127.917 67.773 127.485L2.81024 115.162C-0.68105 114.5 -0.681048 109.5 2.81024 108.838L67.773 96.5146C70.0506 96.0826 71.1381 93.457 69.8331 91.541L32.6115 36.8914C30.6112 33.9543 34.1461 30.4194 37.0831 32.4198L91.7328 69.6414C93.6488 70.9463 96.2743 69.8588 96.7064 67.5813L109.03 2.61846C109.692 -0.872826 114.691 -0.872817 115.354 2.61847L127.677 67.5813C128.109 69.8588 130.735 70.9463 132.651 69.6414L187.3 32.4198C190.237 30.4194 193.772 33.9543 191.772 36.8914L154.55 91.541C153.245 93.457 154.333 96.0826 156.611 96.5146L221.573 108.838Z" fill="white"/>
</svg>
