<svg width="183" height="182" viewBox="0 0 183 182" fill="none" xmlns="http://www.w3.org/2000/svg">
<path d="M177.572 0.24135C180.316 -0.834347 183.026 1.87534 181.95 4.62025L148.582 89.7671C148.272 90.5597 148.272 91.4403 148.582 92.2329L181.95 177.38C183.026 180.125 180.316 182.834 177.572 181.759L92.4247 148.391C91.6321 148.08 90.7515 148.08 89.9589 148.391L4.81202 181.759C2.06711 182.834 -0.642578 180.125 0.433118 177.38L33.8012 92.2329C34.1118 91.4403 34.1118 90.5597 33.8012 89.7671L0.433123 4.62025C-0.642573 1.87534 2.06712 -0.834351 4.81203 0.241346L89.9589 33.6094C90.7515 33.92 91.6321 33.92 92.4247 33.6094L177.572 0.24135Z" fill="white"/>
</svg>
