<svg width="44" height="53" viewBox="0 0 44 53" fill="none" xmlns="http://www.w3.org/2000/svg">
<path d="M5 48V15H3C1.89543 15 1 14.1046 1 13V9C1 7.89543 1.89543 7 3 7H15C16.1046 7 17 6.10457 17 5V3C17 1.89543 17.8954 1 19 1H25C26.1046 1 27 1.89543 27 3V5C27 6.10457 27.8954 7 29 7H41C42.1046 7 43 7.89543 43 9V13C43 14.1046 42.1046 15 41 15H39V48C39 50.2091 37.2091 52 35 52H9C6.79086 52 5 50.2091 5 48Z" fill="#F7F7F7"/>
<path d="M5 15V48C5 50.2091 6.79086 52 9 52H35C37.2091 52 39 50.2091 39 48V15M5 15H3C1.89543 15 1 14.1046 1 13V9C1 7.89543 1.89543 7 3 7H15C16.1046 7 17 6.10457 17 5V3C17 1.89543 17.8954 1 19 1H25C26.1046 1 27 1.89543 27 3V5C27 6.10457 27.8954 7 29 7H41C42.1046 7 43 7.89543 43 9V13C43 14.1046 42.1046 15 41 15H39M5 15H39" stroke="#161616"/>
<path d="M15 25V41" stroke="black" stroke-linecap="round"/>
<path d="M29 25V41" stroke="black" stroke-linecap="round"/>
<path d="M22 25V41" stroke="black" stroke-linecap="round"/>
</svg>
